<svg id="Calque_1" data-name="Calque 1" xmlns="http://www.w3.org/2000/svg" viewBox="0 0 665.52 665.52"><defs><style>.cls-1{fill:#bc1d6e;fill-rule:evenodd;}</style></defs><path class="cls-1" d="M1031.08,211.81c-90.37,0-101.71.38-137.2,2s-59.61,7.24-80.77,15.47a170.14,170.14,0,0,0-97.32,97.32c-8.23,21.16-13.85,45.35-15.47,80.77s-2,46.82-2,137.2.38,101.7,2,137.19,7.24,59.61,15.47,80.78a170.14,170.14,0,0,0,97.32,97.32c21.16,8.22,45.35,13.85,80.77,15.46s46.83,2,137.2,2,101.7-.38,137.19-2,59.61-7.24,80.78-15.46a170.14,170.14,0,0,0,97.32-97.32c8.22-21.17,13.85-45.36,15.46-80.78s2-46.82,2-137.19-.39-101.71-2-137.2-7.24-59.61-15.46-80.77a170.14,170.14,0,0,0-97.32-97.32c-21.17-8.23-45.36-13.86-80.78-15.47S1121.45,211.81,1031.08,211.81Zm0,59.95c88.85,0,99.37.34,134.46,1.94,32.44,1.48,50.06,6.9,61.79,11.46,15.53,6,26.62,13.25,38.26,24.89s18.86,22.73,24.89,38.26c4.56,11.73,10,29.35,11.46,61.79,1.6,35.09,1.94,45.62,1.94,134.47s-.34,99.37-1.94,134.46c-1.48,32.44-6.9,50.06-11.46,61.79-6,15.53-13.24,26.61-24.89,38.26s-22.73,18.85-38.26,24.89c-11.73,4.56-29.35,10-61.79,11.46-35.08,1.6-45.6,1.94-134.46,1.94s-99.38-.34-134.47-1.94c-32.44-1.48-50.06-6.9-61.78-11.46-15.54-6-26.62-13.25-38.26-24.89s-18.86-22.73-24.9-38.26c-4.55-11.73-10-29.35-11.45-61.79-1.61-35.09-1.94-45.61-1.94-134.46s.33-99.38,1.94-134.47c1.47-32.44,6.9-50.06,11.45-61.79,6-15.53,13.25-26.61,24.9-38.26s22.72-18.85,38.26-24.89c11.72-4.56,29.34-10,61.78-11.46C931.7,272.1,942.23,271.76,1031.08,271.76Zm0,383.73A110.92,110.92,0,1,1,1142,544.57,110.92,110.92,0,0,1,1031.08,655.49Zm0-281.8A170.88,170.88,0,1,0,1202,544.57,170.87,170.87,0,0,0,1031.08,373.69Zm177.63,33.18a39.93,39.93,0,1,0-39.93-39.93A39.93,39.93,0,0,0,1208.71,406.87Z" transform="translate(-698.32 -211.81)"/></svg>