<svg xmlns="http://www.w3.org/2000/svg" viewBox="0 0 450 451"><defs><style>.cls-1{fill:#bc1f6e;}.cls-2{fill:#fdfbfc;}.cls-3{fill:#fefcfd;}.cls-4{fill:#d37fa2;}.cls-5{fill:#c85789;}.cls-6{fill:#fffefe;}.cls-7{fill:#bd206e;}.cls-8{fill:#fefdfe;}.cls-9{fill:#bd216f;}</style></defs><g id="Calque_2" data-name="Calque 2"><path class="cls-1" d="M-62.65,558.76v14c-.92,5.46-1.79,10.94-2.78,16.39-6.82,37.47-27.63,63.25-63.69,76.35-16.27,5.91-33.3,5.89-50.17,5.95q-105.46.41-210.94,0a363.55,363.55,0,0,1-40-2.73c-17.54-2-32.76-9.88-46.13-21.15-23.87-20.12-34-46.89-34.23-77.16-.65-74-.54-147.94-.44-221.91,0-13.58.36-27.32,2.36-40.71,5.13-34.37,23.85-59.22,55.42-74,13.89-6.5,28.86-8.56,44-9.34,7.43-.38,14.87-.59,22.31-.88h199.45l6.84.6c13.86,1.2,28,1,41.51,3.84,39.38,8.25,66.54,38.08,73.66,79,.89,5.11,1.84,10.22,2.76,15.33v21a40.39,40.39,0,0,0-1,6.19q-.09,101.83,0,203.67A32.12,32.12,0,0,0-62.65,558.76ZM-286,613.35c25.64-.87,52.58-1.22,79.43-2.91a86.07,86.07,0,0,0,49.08-18.81c22.84-18.2,33-43,33.53-71.09,1-48.34.5-96.72.14-145.08a94.86,94.86,0,0,0-8.49-38.18c-14.4-32-40.25-48.31-74.21-51.71-19.47-2-39.17-2.18-58.77-2.1-33.73.14-67.55-.23-101.16,2.07-47.61,3.25-80,36.59-83.4,84.23-3.5,49.46-2.43,99-.8,148.54.45,13.84,3,27.43,8.68,40.19,14.48,32.41,40.58,49.13,75,52.08C-340.52,612.85-313.85,612.5-286,613.35Z" transform="translate(512.65 -222.5)"/><path class="cls-2" d="M-386.87,223.52c-7.44.29-14.88.5-22.31.88-15.17.78-30.14,2.84-44,9.34-31.57,14.78-50.29,39.63-55.42,74-2,13.39-2.35,27.13-2.36,40.71-.1,74-.21,147.94.44,221.91.26,30.27,10.36,57,34.23,77.16,13.37,11.27,28.59,19.13,46.13,21.15a363.55,363.55,0,0,0,40,2.73q105.47.4,210.94,0c16.87-.06,33.9,0,50.17-5.95,36.06-13.1,56.87-38.88,63.69-76.35,1-5.45,1.86-10.93,2.78-16.39V673.5h-450v-451h125.72Z" transform="translate(512.65 -222.5)"/><path class="cls-3" d="M-62.65,322.28c-.92-5.11-1.87-10.22-2.76-15.33-7.12-40.91-34.28-70.74-73.66-79-13.51-2.83-27.65-2.64-41.51-3.84l-6.84-.6,0-1H-62.65Z" transform="translate(512.65 -222.5)"/><path class="cls-4" d="M-62.65,558.76a32.12,32.12,0,0,1-1-5.67q-.06-101.84,0-203.67a40.39,40.39,0,0,1,1-6.19Z" transform="translate(512.65 -222.5)"/><path class="cls-5" d="M-187.37,222.5l0,1H-386.87l-.06-1Z" transform="translate(512.65 -222.5)"/><path class="cls-6" d="M-286,613.35c-27.88-.85-54.55-.5-81-2.77-34.39-3-60.49-19.67-75-52.08-5.69-12.76-8.23-26.35-8.68-40.19-1.63-49.52-2.7-99.08.8-148.54,3.37-47.64,35.79-81,83.4-84.23,33.61-2.3,67.43-1.93,101.16-2.07,19.6-.08,39.3.14,58.77,2.1,34,3.4,59.81,19.66,74.21,51.71a94.86,94.86,0,0,1,8.49,38.18c.36,48.36.82,96.74-.14,145.08-.56,28.12-10.69,52.89-33.53,71.09a86.07,86.07,0,0,1-49.08,18.81C-233.39,612.13-260.33,612.48-286,613.35Zm134.15-164.66c-.56-24.24-1.08-48.17-1.69-72.09-.07-2.81-.6-5.61-.91-8.41-3-26.45-19.37-45.36-45.08-51.32a103.13,103.13,0,0,0-21.71-2.65q-54.34-.77-108.69-.8a299.51,299.51,0,0,0-36.8,2c-24.2,3-42.12,15.07-49.72,39.12a95,95,0,0,0-4.29,25.92q-1.17,47.1-1,94.22c0,17.26.5,34.58,2,51.76,2.61,29.37,20.68,48.87,49.69,53.37,13.56,2.1,27.47,2.67,41.22,2.72,36.06.11,72.13-.27,108.18-.83,14.78-.23,29.22-2.87,41.74-11.44,17.73-12.13,24.33-30.24,25.25-50.64C-152.56,495.92-152.38,472.15-151.82,448.69Z" transform="translate(512.65 -222.5)"/><path class="cls-7" d="M-151.82,448.69c-.56,23.46-.74,47.23-1.81,71-.92,20.4-7.52,38.51-25.25,50.64-12.52,8.57-27,11.21-41.74,11.44-36.05.56-72.12.94-108.18.83-13.75-.05-27.66-.62-41.22-2.72-29-4.5-47.08-24-49.69-53.37-1.53-17.18-2-34.5-2-51.76q-.11-47.12,1-94.22a95,95,0,0,1,4.29-25.92c7.6-24.05,25.52-36.12,49.72-39.12a299.51,299.51,0,0,1,36.8-2q54.34,0,108.69.8a103.13,103.13,0,0,1,21.71,2.65c25.71,6,42.08,24.87,45.08,51.32.31,2.8.84,5.6.91,8.41C-152.9,400.52-152.38,424.45-151.82,448.69Zm-135.55-85.37a84.63,84.63,0,0,0-84.44,85,84.59,84.59,0,0,0,85,84.36c47.28-.2,84.51-37.89,84.39-85.43C-202.55,400.86-240.68,363.19-287.37,363.32Zm108-3a19.56,19.56,0,0,0-19.7-20A19.77,19.77,0,0,0-219.15,360a19.76,19.76,0,0,0,19.75,20A19.67,19.67,0,0,0-179.39,360.28Z" transform="translate(512.65 -222.5)"/><path class="cls-8" d="M-287.37,363.32c46.69-.13,84.82,37.54,84.94,83.91.12,47.54-37.11,85.23-84.39,85.43a84.59,84.59,0,0,1-85-84.36A84.63,84.63,0,0,1-287.37,363.32Zm.73,139.2a54.61,54.61,0,0,0,54.22-55.38c-.3-29.93-25.2-54.18-55.29-53.83a54.6,54.6,0,0,0-54,55.12C-341.29,478.6-316.52,502.94-286.64,502.52Z" transform="translate(512.65 -222.5)"/><path class="cls-3" d="M-179.39,360.28a19.67,19.67,0,0,1-20,19.74,19.76,19.76,0,0,1-19.75-20,19.77,19.77,0,0,1,20.06-19.72A19.56,19.56,0,0,1-179.39,360.28Z" transform="translate(512.65 -222.5)"/><path class="cls-9" d="M-286.64,502.52c-29.88.42-54.65-23.92-55-54.09a54.6,54.6,0,0,1,54-55.12c30.09-.35,55,23.9,55.29,53.83A54.61,54.61,0,0,1-286.64,502.52Z" transform="translate(512.65 -222.5)"/></g></svg>