<svg xmlns="http://www.w3.org/2000/svg" viewBox="0 0 558 566"><defs><style>.cls-1{fill:#fff;}.cls-2{fill:#020202;}.cls-3{fill:#f1f1f1;}.cls-4{fill:#dedede;}.cls-5{fill:#c7c7c7;}</style></defs><g id="Calque_2" data-name="Calque 2"><path class="cls-1" d="M296.14,703.94H18.64v-566h558V405.47c-.91-1.3-1.93-2.53-2.7-3.9-8.38-15-22.43-20.81-38.24-17.46-15.54,3.29-25.86,17.05-25.88,32.89,0,16.22,10.22,29.38,26,33.38,14.62,3.71,30.47-3.51,38-17.24a28.68,28.68,0,0,1,2.86-3.71V703.94H315.11c1.58-.79,3.14-1.62,4.74-2.36a34.22,34.22,0,0,0,19.79-36.72c-2.22-14.18-14.93-26.6-28.67-28-17.1-1.73-31.38,6.37-36.89,21.66-5.11,14.21-1.37,29.84,11.86,39.48C289.1,700.31,292.73,702,296.14,703.94ZM136.66,417.07A162,162,0,0,0,297,579.27c90.26.94,163.33-72.52,164-160.84S390.37,255,299.27,255A162,162,0,0,0,136.66,417.07ZM91.41,595.15c-1.28,18.07,16.12,34.62,34.06,34,18.95-.64,33.48-15,33.92-33.9s-17-34.3-34.06-34.36C107.74,560.85,90,576.94,91.41,595.15Zm28.23-385.39c-19.45,0-34.06,14.55-34,33.91a33.57,33.57,0,0,0,33.77,33.88c19.17,0,34-14.84,34-34.11S138.78,209.76,119.64,209.76ZM53.92,388.44c-18.73-1.34-34.76,16.28-34.32,33.75.48,19,14.92,34,33.72,34.05,19.24.08,34.14-14.73,34.14-33.95S73,388.46,53.92,388.44ZM471,209.76c-19.31,0-34,14.76-34,34.05a33.73,33.73,0,0,0,34,33.75,33.39,33.39,0,0,0,33.84-33.73C504.84,224.26,490.43,209.75,471,209.76Zm33.86,382.61c0-19.38-14.64-34.09-33.9-34.06a33.69,33.69,0,0,0-33.87,33.81c-.05,19.13,14.84,33.93,34.12,33.92S504.84,611.54,504.84,592.37ZM294.62,138.94c-18-2.17-34.31,15.62-34.09,33.16.23,19.17,14.81,34.13,34,34.16s33.51-14.7,34-34.07C329,155,312.6,136.74,294.62,138.94Z" transform="translate(-18.64 -137.94)"/><path class="cls-2" d="M576.64,429.43a28.68,28.68,0,0,0-2.86,3.71c-7.5,13.73-23.35,20.95-38,17.24-15.77-4-26-17.16-26-33.38,0-15.84,10.34-29.6,25.88-32.89,15.81-3.35,29.86,2.42,38.24,17.46.77,1.37,1.79,2.6,2.7,3.9Z" transform="translate(-18.64 -137.94)"/><path class="cls-2" d="M296.14,703.94c-3.41-2-7-3.63-10.2-5.93-13.23-9.64-17-25.27-11.86-39.48,5.51-15.29,19.79-23.39,36.89-21.66,13.74,1.39,26.45,13.81,28.67,28a34.22,34.22,0,0,1-19.79,36.72c-1.6.74-3.16,1.57-4.74,2.36Z" transform="translate(-18.64 -137.94)"/><path class="cls-2" d="M136.66,417.07A162,162,0,0,1,299.27,255c91.1,0,162.37,75.15,161.72,163.47S387.27,580.21,297,579.27A162,162,0,0,1,136.66,417.07ZM310.08,521.36l26.06-6.05,13.08-5.95c3.8-2.28,7.86-4.21,11.36-6.89,32-24.47,46.93-56.8,42.67-97-6.71-63.12-67.79-105.76-129-90.68-75.37,18.57-105.76,108.23-57,168.72,14,17.4,31.87,29.43,53.85,34.78l3.75,1.09,13,2Z" transform="translate(-18.64 -137.94)"/><path class="cls-2" d="M91.41,595.15c-1.39-18.21,16.33-34.3,33.92-34.24,17.06.06,34.49,15.3,34.06,34.36s-15,33.26-33.92,33.9C107.53,629.77,90.13,613.22,91.41,595.15Z" transform="translate(-18.64 -137.94)"/><path class="cls-2" d="M119.64,209.76c19.14,0,33.69,14.54,33.71,33.68s-14.81,34.15-34,34.11A33.57,33.57,0,0,1,85.6,243.67C85.58,224.31,100.19,209.75,119.64,209.76Z" transform="translate(-18.64 -137.94)"/><path class="cls-2" d="M53.92,388.44c19.07,0,33.55,14.63,33.54,33.85s-14.9,34-34.14,33.95c-18.8-.08-33.24-15.09-33.72-34.05C19.16,404.72,35.19,387.1,53.92,388.44Z" transform="translate(-18.64 -137.94)"/><path class="cls-2" d="M471,209.76c19.45,0,33.86,14.5,33.83,34.07A33.39,33.39,0,0,1,471,277.56a33.73,33.73,0,0,1-34-33.75C437,224.52,451.67,209.77,471,209.76Z" transform="translate(-18.64 -137.94)"/><path class="cls-2" d="M504.84,592.37c0,19.17-14.48,33.66-33.65,33.67S437,611.25,437.07,592.12a33.69,33.69,0,0,1,33.87-33.81C490.2,558.28,504.84,573,504.84,592.37Z" transform="translate(-18.64 -137.94)"/><path class="cls-2" d="M294.62,138.94c18-2.2,34.39,16.07,33.94,33.25-.51,19.37-14.71,34.1-34,34.07s-33.78-15-34-34.16C260.31,154.56,276.64,136.77,294.62,138.94Z" transform="translate(-18.64 -137.94)"/><path class="cls-1" d="M271.07,518.32c-22-5.35-39.82-17.38-53.85-34.78-48.74-60.49-18.35-150.15,57-168.72,61.22-15.08,122.3,27.56,129,90.68,4.26,40.17-10.68,72.5-42.67,97-3.5,2.68-7.56,4.61-11.36,6.89l.32-4.16a6.41,6.41,0,0,0-2.22-.26c-8.6,2.13-17.1,4.75-25.79,6.39-5.84,1.1-11.93,1-17.91,1.16-5,.13-10-.27-15-.2-3.91.05-7.83.42-11.74.7-3.38.25-6.76.56-10.14.85l.1.81,5,2C271.59,517.22,271.33,517.77,271.07,518.32Z" transform="translate(-18.64 -137.94)"/><path class="cls-3" d="M271.07,518.32l.77-1.65-5-2-.1-.81c3.38-.29,6.76-.6,10.14-.85,3.91-.28,7.83-.65,11.74-.7,5-.07,10,.33,15,.2,6-.16,12.07-.06,17.91-1.16,8.69-1.64,17.19-4.26,25.79-6.39a6.41,6.41,0,0,1,2.22.26l-.32,4.16-13.08,5.95-.8-1.3,6.46-3.27a2.47,2.47,0,0,0-2.38-.54c-14.51,5.85-29.55,6.4-44.92,5.05-4.66-.41-9.57.59-14.17,1.75-1.75.44-3,3-5.51,2.41Z" transform="translate(-18.64 -137.94)"/><path class="cls-4" d="M274.82,519.41c2.51.56,3.76-2,5.51-2.41,4.6-1.16,9.51-2.16,14.17-1.75,15.37,1.35,30.41.8,44.92-5.05a2.47,2.47,0,0,1,2.38.54L335.34,514l.8,1.3-26.06,6.05,2.48-2.86H287l.91,2.91Z" transform="translate(-18.64 -137.94)"/><path class="cls-5" d="M287.86,521.41,287,518.5h25.61l-2.48,2.86Z" transform="translate(-18.64 -137.94)"/></g></svg>