<?xml version="1.0" encoding="utf-8"?>
<!-- Generator: Adobe Illustrator 26.0.0, SVG Export Plug-In . SVG Version: 6.00 Build 0)  -->
<svg version="1.1" id="Calque_1" xmlns="http://www.w3.org/2000/svg" xmlns:xlink="http://www.w3.org/1999/xlink" x="0px" y="0px"
	 viewBox="0 0 283.46 283.46" style="enable-background:new 0 0 283.46 283.46;" xml:space="preserve">
<style type="text/css">
	.st0{fill:none;stroke:#FFFFFF;stroke-width:18;stroke-linecap:round;stroke-linejoin:round;stroke-miterlimit:133.3333;}
</style>
<g>
	<path class="st0" d="M112.03,240.52h-53.4c-15.74,0-23.61,0-29.62-3.06c-5.29-2.69-9.59-6.99-12.28-12.28
		c-3.06-6.01-3.06-13.88-3.06-29.62V88.76c0-15.74,0-23.61,3.06-29.62c2.69-5.29,6.99-9.59,12.28-12.28
		c6.01-3.06,13.88-3.06,29.62-3.06h163c15.74,0,23.61,0,29.62,3.06c5.29,2.69,9.59,6.99,12.28,12.28
		c3.06,6.01,3.06,13.88,3.06,29.62v25.29 M261.07,89.64l-71.06,47.37c-18.03,12.02-27.04,18.03-36.79,20.36
		c-8.61,2.06-17.59,2.06-26.2,0c-9.74-2.34-18.76-8.35-36.79-20.36l-74.5-49.67 M168.23,268.62l28.45-5.69
		c2.48-0.5,3.72-0.74,4.88-1.2c1.03-0.4,2-0.92,2.91-1.56c1.02-0.71,1.91-1.6,3.7-3.39l58.42-58.42c7.76-7.76,7.76-20.34,0-28.1
		s-20.34-7.76-28.1,0l-58.42,58.42c-1.79,1.79-2.68,2.68-3.39,3.7c-0.63,0.9-1.15,1.88-1.56,2.91c-0.45,1.16-0.7,2.4-1.2,4.88
		L168.23,268.62z"/>
</g>
</svg>
