<?xml version="1.0" ?>
<!DOCTYPE svg  PUBLIC '-//W3C//DTD SVG 1.1//EN'  'http://www.w3.org/Graphics/SVG/1.1/DTD/svg11.dtd'>
<!-- Uploaded to: SVG Repo, www.svgrepo.com, Generator: SVG Repo Mixer Tools -->
<svg width="800px" height="800px" viewBox="0 0 64 64" id="Layer_1" version="1.1" xml:space="preserve" xmlns="http://www.w3.org/2000/svg" xmlns:xlink="http://www.w3.org/1999/xlink">
<g id="Body_14_">
<g>
<path d="M60,0H4C1.791,0,0,1.791,0,4v56c0,2.209,1.791,4,4,4h56c2.209,0,4-1.791,4-4V4    C64,1.791,62.209,0,60,0z" style="fill:#A67C52;"/>
</g>
</g>
<g id="Shape_32_">
<g>
<rect height="56" style="fill:#FFFFFF;" width="56" x="4" y="4"/>
</g>
</g>
<g id="Board">
<g>
<path d="M20,4h-8v8h8V4z M36,4h-8v8h8V4z M52,4h-8v8h8V4z M4,12v8h8    v-8H4z M28,20v-8h-8v8H28z M44,20v-8h-8v8H44z M60,20v-8h-8v8H60z M20,20h-8v8h8V20z M36,28v-8h-8v8H36z M44,20v8h8v-8H44z M4,28    v8h8v-8H4z M28,28h-8v8h8V28z M36,36h8v-8h-8V36z M60,36v-8h-8v8H60z M20,36h-8v8h8V36z M28,36v8h8v-8H28z M44,44h8v-8h-8V44z     M4,44v8h8v-8H4z M20,44v8h8v-8H20z M36,44v8h8v-8H36z M60,52v-8h-8v8H60z M12,60h8v-8h-8V60z M28,60h8v-8h-8V60z M44,60h8v-8h-8    V60z" style="fill-rule:evenodd;clip-rule:evenodd;fill:#666666;"/>
</g>
</g>
<g/>
<g/>
<g/>
<g/>
<g/>
<g/>
<g/>
<g/>
<g/>
<g/>
<g/>
<g/>
<g/>
<g/>
<g/>
</svg>