<?xml version="1.0" encoding="utf-8"?>
<!-- Generator: Adobe Illustrator 26.0.0, SVG Export Plug-In . SVG Version: 6.00 Build 0)  -->
<svg version="1.1" id="Calque_1" xmlns="http://www.w3.org/2000/svg" xmlns:xlink="http://www.w3.org/1999/xlink" x="0px" y="0px"
	 viewBox="0 0 595.28 841.89" style="enable-background:new 0 0 595.28 841.89;" xml:space="preserve">
<style type="text/css">
	.st0{fill:none;stroke:#FFFFFF;stroke-width:66.6667;stroke-linecap:round;stroke-linejoin:round;stroke-miterlimit:133.3333;}
</style>
<g>
	<path class="st0" d="M238.96,644.18H137.94c-29.78,0-44.67,0-56.04-5.8c-10-5.1-18.14-13.23-23.24-23.23
		c-5.8-11.37-5.8-26.26-5.8-56.04V357.07c0-29.78,0-44.67,5.8-56.04c5.1-10,13.23-18.14,23.24-23.24c11.37-5.8,26.26-5.8,56.04-5.8
		h308.38c29.78,0,44.67,0,56.04,5.8c10,5.1,18.14,13.23,23.23,23.24c5.8,11.37,5.8,26.26,5.8,56.04v47.85 M520.93,358.73
		L386.5,448.35c-34.11,22.74-51.16,34.11-69.59,38.53c-16.29,3.9-33.27,3.9-49.56,0c-18.43-4.42-35.49-15.79-69.6-38.53
		L56.79,354.37 M345.3,697.35l53.83-10.77c4.69-0.94,7.04-1.41,9.23-2.27c1.94-0.76,3.79-1.75,5.5-2.94
		c1.93-1.35,3.62-3.04,7.01-6.42l110.52-110.52c14.68-14.68,14.68-38.49,0-53.17c-14.68-14.68-38.49-14.68-53.17,0L367.7,621.78
		c-3.39,3.39-5.08,5.08-6.42,7.01c-1.19,1.71-2.18,3.56-2.94,5.5c-0.86,2.19-1.33,4.54-2.27,9.23L345.3,697.35z"/>
</g>
</svg>
