<svg xmlns="http://www.w3.org/2000/svg" viewBox="0 0 555.28 553.43"><defs><style>.cls-1{fill:#0275b4;}.cls-2{fill:#f1f4fa;}.cls-3{fill:#568dc3;}.cls-4{fill:#b5c6e4;}.cls-5{fill:#fcfdfe;}.cls-6{fill:#fefeff;}.cls-7{fill:#feffff;}</style></defs><g id="Calque_2" data-name="Calque 2"><path class="cls-1" d="M57,720.71H54.19a9.15,9.15,0,0,0-1.82-1.16c-20.93-7-30.74-20.49-30.74-42.4q0-233,0-466.07c0-26.2,16.58-42.71,42.72-42.71H531.81c24.85,0,40.76,14.67,42.8,39.46-.09,2-.25,4-.25,6q0,230.88,0,461.75c0,1.84.13,3.69.2,5.53-1.31,20.65-15.29,36.59-34.11,38.9-1.07-.07-2.15-.21-3.22-.21q-237.48,0-474.95.05A32.62,32.62,0,0,0,57,720.71Zm261.55-82.3v-5.36c0-41.57-.26-83.15.17-124.71a162.06,162.06,0,0,1,3.78-33.82c4.32-19.13,16.56-30.84,36.52-33.38a81.16,81.16,0,0,1,12-.44c17.66.38,29.64,9.21,35.26,26,3.93,11.68,4.61,23.82,4.62,36q0,65.13,0,130.26v5.44h82.07v-3.44c0-49.73.11-99.46-.19-149.19-.13-21-2.1-41.82-9.09-61.86-6.52-18.7-17.47-33.87-35.24-43.35-18.93-10.11-39.49-12.57-60.49-11.2-30.13,2-54.25,14.76-70.4,41-.26.42-.82.66-2.25,1.76V375.68H237.41V638.41Zm-133.44.05V375.66H104.23v262.8ZM97.36,291.39a47.48,47.48,0,0,0,46.74,47.88c26.23.44,48.06-20.95,48.34-47.38.28-25.76-21.48-47.58-47.61-47.74C119,244,97.63,265.29,97.36,291.39Z" transform="translate(-20 -167.29)"/><path class="cls-2" d="M574.61,207.83c-2-24.79-18-39.46-42.8-39.46H64.35c-26.14,0-42.72,16.51-42.72,42.71q0,233,0,466.07c0,21.91,9.81,35.36,30.74,42.4a9.15,9.15,0,0,1,1.82,1.16H20V167.29H575.28v40.65A.5.5,0,0,0,574.61,207.83Z" transform="translate(-20 -167.29)"/><path class="cls-3" d="M57,720.71a32.62,32.62,0,0,1,5.32-.88q237.48-.08,475-.05c1.07,0,2.15.14,3.22.21a1.2,1.2,0,0,1-.28.72Z" transform="translate(-20 -167.29)"/><path class="cls-4" d="M574.61,207.83a.5.5,0,0,1,.67.11V681a.55.55,0,0,1-.72.11c-.07-1.84-.2-3.69-.2-5.53q0-230.88,0-461.75C574.36,211.82,574.52,209.82,574.61,207.83Z" transform="translate(-20 -167.29)"/><path class="cls-5" d="M574.56,681.09a.55.55,0,0,0,.72-.11v39.73H540.17a1.2,1.2,0,0,0,.28-.72C559.27,717.68,573.25,701.74,574.56,681.09Z" transform="translate(-20 -167.29)"/><path class="cls-6" d="M318.51,638.41h-81.1V375.68h77.85v36.41c1.43-1.1,2-1.34,2.25-1.76,16.15-26.24,40.27-39,70.4-41,21-1.37,41.56,1.09,60.49,11.2,17.77,9.48,28.72,24.65,35.24,43.35,7,20,9,40.88,9.09,61.86.3,49.73.16,99.46.19,149.19v3.44H410.85v-5.44q0-65.13,0-130.26c0-12.19-.69-24.33-4.62-36-5.62-16.75-17.6-25.58-35.26-26a81.16,81.16,0,0,0-12,.44c-20,2.54-32.2,14.25-36.52,33.38a162.06,162.06,0,0,0-3.78,33.82c-.43,41.56-.17,83.14-.17,124.71Z" transform="translate(-20 -167.29)"/><path class="cls-7" d="M185.07,638.46H104.23V375.66h80.84Z" transform="translate(-20 -167.29)"/><path class="cls-6" d="M97.36,291.39c.27-26.1,21.67-47.4,47.47-47.24,26.13.16,47.89,22,47.61,47.74-.28,26.43-22.11,47.82-48.34,47.38A47.48,47.48,0,0,1,97.36,291.39Z" transform="translate(-20 -167.29)"/></g></svg>