<svg xmlns="http://www.w3.org/2000/svg" viewBox="0 0 558 566"><defs><style>.cls-1{fill:#fff;}.cls-2{fill:#cbcbcb;}</style></defs><g id="Calque_2" data-name="Calque 2"><path class="cls-1" d="M576.64,426.44v277.5H314.11c1.49-.72,2.95-1.51,4.47-2.16,15.76-6.78,23.79-21.95,20.31-38.42C335.5,647.27,322.42,637,305.46,637a33.07,33.07,0,0,0-32.71,26.76,33.91,33.91,0,0,0,19.56,37.68c1.65.73,3.22,1.66,4.83,2.49H18.64V138h558V407.47c-.61-1.18-1.25-2.34-1.82-3.53-6.51-13.67-17.31-20.54-32.47-20.41-13.29.12-25.22,8.64-30.21,21.43-5.21,13.35-1.81,27.14,9.28,37.64,8.8,8.32,24,10.67,35.41,5.74C566.82,444,572.66,436.11,576.64,426.44Zm-439.5-9C136,506.06,210.47,583.41,306.35,579c85.83-4,157.93-75,154.32-169.33-3.2-83.45-74.27-160.09-173.18-154C206.91,260.54,136,329.51,137.14,417.41ZM91.51,594.52C91.46,613.91,106.2,629,125.24,629a34.25,34.25,0,0,0,34.07-33.91c0-18.41-15.26-33.84-33.52-33.9C106.55,561.16,91.55,575.72,91.51,594.52Zm28.1-384.69c-18.7,0-33.92,14.83-34,33.2-.11,18.8,15.55,34.7,34,34.56,18.34-.15,33.71-15.54,33.73-33.78A33.72,33.72,0,0,0,119.61,209.83Zm-66,178.69c-18.61,0-33.83,15-33.88,33.34-.05,18.59,15.27,34.23,33.69,34.41s34.1-15.46,34.08-33.93A33.72,33.72,0,0,0,53.58,388.52ZM504.74,243.35a33.56,33.56,0,0,0-33.63-33.51A34,34,0,0,0,437,243.57c-.16,18.09,16,34.23,34.08,34A34.14,34.14,0,0,0,504.74,243.35Zm0,348.63c0-18.56-15.34-33.86-33.68-33.69s-33.82,15.52-34,33.71c-.18,18.65,15.48,34.1,34.5,34C490,626,504.79,610.79,504.75,592Zm-210.23-453c-16.95-1.89-33.71,16.41-33.77,33.29-.05,17.32,16.78,34.11,34,34,17-.1,33.62-16.1,33.72-33.7C328.53,154.76,311.6,137.07,294.52,138.94Z" transform="translate(-18.64 -137.94)"/><path class="cls-2" d="M297.14,703.94c-1.61-.83-3.18-1.76-4.83-2.49a33.91,33.91,0,0,1-19.56-37.68A33.07,33.07,0,0,1,305.46,637c17,0,30,10.26,33.43,26.35,3.48,16.47-4.55,31.64-20.31,38.42-1.52.65-3,1.44-4.47,2.16Z" transform="translate(-18.64 -137.94)"/><path class="cls-2" d="M576.64,426.44c-4,9.67-9.82,17.58-19.81,21.9-11.4,4.93-26.61,2.58-35.41-5.74-11.09-10.5-14.49-24.29-9.28-37.64,5-12.79,16.92-21.31,30.21-21.43,15.16-.13,26,6.74,32.47,20.41.57,1.19,1.21,2.35,1.82,3.53Z" transform="translate(-18.64 -137.94)"/><path class="cls-2" d="M137.14,417.41c-1.13-87.9,69.77-156.87,150.35-161.8,98.91-6.06,170,70.58,173.18,154C464.28,504,392.18,575,306.35,579,210.47,583.41,136,506.06,137.14,417.41ZM299,522.31c57,.43,105.73-45,105.41-105.06-.33-61.6-48.48-105-105.28-105.52-58.19-.5-105.83,47.45-105.76,105.63S240.34,522.33,299,522.31Z" transform="translate(-18.64 -137.94)"/><path class="cls-2" d="M91.51,594.52c0-18.8,15-33.36,34.28-33.3,18.26.06,33.51,15.49,33.52,33.9A34.25,34.25,0,0,1,125.24,629C106.2,629,91.46,613.91,91.51,594.52Z" transform="translate(-18.64 -137.94)"/><path class="cls-2" d="M119.61,209.83a33.72,33.72,0,0,1,33.74,34c0,18.24-15.39,33.63-33.73,33.78-18.49.14-34.15-15.76-34-34.56C85.69,224.66,100.91,209.81,119.61,209.83Z" transform="translate(-18.64 -137.94)"/><path class="cls-2" d="M53.58,388.52a33.72,33.72,0,0,1,33.89,33.82c0,18.47-15.69,34.11-34.08,33.93S19.65,440.45,19.7,421.86C19.75,403.49,35,388.52,53.58,388.52Z" transform="translate(-18.64 -137.94)"/><path class="cls-2" d="M504.74,243.35a34.14,34.14,0,0,1-33.67,34.24c-18.07.21-34.24-15.93-34.08-34a34,34,0,0,1,34.12-33.73A33.56,33.56,0,0,1,504.74,243.35Z" transform="translate(-18.64 -137.94)"/><path class="cls-2" d="M504.75,592c0,18.81-14.75,34-33.18,34.06-19,.06-34.68-15.39-34.5-34,.18-18.19,15.66-33.54,34-33.71S504.72,573.42,504.75,592Z" transform="translate(-18.64 -137.94)"/><path class="cls-2" d="M294.52,138.94c17.08-1.87,34,15.82,33.91,33.6-.1,17.6-16.75,33.6-33.72,33.7-17.18.1-34-16.69-34-34C260.81,155.35,277.57,137.05,294.52,138.94Z" transform="translate(-18.64 -137.94)"/><path class="cls-1" d="M299,522.31c-58.61,0-105.56-46.63-105.63-104.95s47.57-106.13,105.76-105.63c56.8.49,105,43.92,105.28,105.52C404.68,477.3,355.94,522.74,299,522.31Z" transform="translate(-18.64 -137.94)"/></g></svg>